<svg width="188" height="27" fill="none" xmlns="http://www.w3.org/2000/svg"><path d="M7.965 25.545c-.549 0-1.012-.45-1.012-.983V6.584h-4.28c-.549 0-1.011-.45-1.011-.983v-2.19c0-.535.462-.984 1.012-.984H16.38c.55 0 1.012.45 1.012.983v2.163c0 .534-.462.983-1.012.983h-4.453v17.978c0 .533-.463.983-1.012.983h-2.95v.028Zm27.76.59c-6.13 0-9.253-3.062-9.253-9.13 0-3.68 1.127-6.348 3.354-7.949 1.793-1.292 3.788-1.46 4.829-1.46 2.978 0 8.01 1.123 8.01 8.595 0 1.236-.29 2.388-2.314 2.388h-8.906c.318 2.415 1.764 3.623 4.28 3.623 1.185 0 2.458-.225 3.759-.702a1.49 1.49 0 0 1 .347-.056c.405 0 .81.253.954.646l.636 1.713c.174.45-.029.955-.462 1.208-1.36.73-3.73 1.124-5.234 1.124Zm-.752-14.916c-2.516 0-3.238 2.079-3.412 3.848h6.535c-.173-2.696-1.099-3.848-3.123-3.848Zm23.278 14.326c-.55 0-1.013-.45-1.013-.983V14.084c0-2.303-1.619-2.64-2.573-2.64-1.706 0-3.036.646-4.106 1.994.029.253.029.534.029.843v10.28c0 .535-.463.984-1.012.984h-2.863c-.55 0-1.012-.45-1.012-.983V9.534c0-.253.116-.506.29-.703a1.02 1.02 0 0 1 .722-.28h1.995c.463 0 .868.309.983.758l.03.59c.635-.674 2.457-2.304 5.667-2.304 2.891 0 6.737.675 6.737 6.49v10.477c0 .534-.462.983-1.012.983h-2.862Z" fill="#5C514E"/><path d="M116.459 25.545c-.55 0-1.013-.45-1.013-.983V14.084c0-2.303-1.619-2.64-2.573-2.64-1.706 0-3.036.646-4.106 1.994.029.253.029.534.029.843v10.28c0 .535-.463.984-1.012.984h-2.863c-.549 0-1.012-.45-1.012-.983V9.534c0-.253.116-.506.289-.703.203-.196.463-.28.723-.28h1.995c.463 0 .868.309.983.758l.058.59c.636-.674 2.458-2.332 5.668-2.332 2.891 0 6.737.675 6.737 6.49v10.477c0 .533-.462.983-1.012.983h-2.891v.028Z" fill="#70A62D"/><path d="M72.91 26.135c-3.064 0-8.24-1.208-8.24-9.242 0-3.202.925-5.646 2.747-7.303 1.966-1.742 4.337-2.023 5.552-2.023 1.735 0 3.325.506 4.54 1.461V3.382c0-.534.462-.983 1.011-.983h2.863c.55 0 1.012.45 1.012.983v21.152c0 .253-.115.505-.289.702a1.02 1.02 0 0 1-.723.28H78.81a1.02 1.02 0 0 1-1.012-.898l-.03-.365c-.896.87-2.457 1.882-4.857 1.882Zm.868-14.776c-2.082 0-4.28 1.461-4.28 5.534 0 2.023.521 5.422 4.107 5.422 1.59 0 3.152-.871 3.903-2.22v-6.994c-.838-1.152-2.081-1.742-3.73-1.742Z" fill="#5C514E"/><path d="M152.285 25.545c-.549 0-1.012-.45-1.012-.983V14c0-1.63-.607-2.416-1.879-2.416-1.764 0-2.718 1.011-3.21 1.854.029.253.029.534.029.843v10.253c0 .533-.463.983-1.012.983h-2.921c-.549 0-1.012-.45-1.012-.983V14c0-1.63-.607-2.416-1.85-2.416-1.388 0-2.487.618-3.239 1.854.029.253.029.534.029.843v10.253c0 .533-.463.983-1.012.983h-2.863c-.549 0-1.012-.45-1.012-.983v-15c0-.253.116-.506.289-.703.203-.196.463-.28.723-.28h2.024c.463 0 .897.309.984.758l.057.646c1.157-1.517 2.892-2.331 4.974-2.331 2.4 0 4.077.786 5.002 2.331 1.215-1.573 2.892-2.331 5.032-2.331 1.446 0 5.841 0 5.841 6.264v10.674c0 .534-.463.983-1.012.983h-2.95Zm31.23.421c-2.661 0-5.812-1.04-5.812-6.011V3.41c0-.534.462-.983 1.012-.983h2.862c.55 0 1.012.45 1.012.983v16.208c0 1.46.521 2.303 1.446 2.303.087 0 .203 0 .347-.028h.116c.405 0 .781.253.954.618l.781 1.826a.993.993 0 0 1-.55 1.292c-.607.225-1.33.337-2.168.337Z" fill="#70A62D"/><path d="M20.14 25.545c-.55 0-1.013-.45-1.013-.983V9.534c0-.534.463-.983 1.012-.983h2.892c.55 0 1.012.449 1.012.983v15.028c0 .534-.463.983-1.012.983h-2.892Z" fill="#5C514E"/><path d="M124.381 25.545c-.549 0-1.012-.45-1.012-.983V9.534c0-.534.463-.983 1.012-.983h2.892c.549 0 1.012.449 1.012.983v15.028c0 .534-.463.983-1.012.983h-2.892Zm-32.01.59c-4.308 0-7.084-2.163-7.084-5.506 0-2.219 1.214-5.899 9.369-5.899.26 0 .607 0 1.388.028v-1.573c0-.505 0-1.685-2.603-1.685a8.927 8.927 0 0 0-3.036.506 1.49 1.49 0 0 1-.347.056c-.289 0-.578-.113-.752-.337l-1.474-1.63a.982.982 0 0 1 .318-1.544c1.272-.618 3.21-.984 5.32-.984 2.747 0 7.374.703 7.374 5.478v11.489c0 .533-.463.983-1.012.983h-2.516a1.02 1.02 0 0 1-.983-.702c-1.33.898-2.66 1.32-3.962 1.32Zm2.69-8.174c-3.326 0-4.83.758-4.83 2.415 0 1.405.868 2.08 2.632 2.08 1.388 0 2.4-.422 3.18-.844V17.99c-.462-.028-.751-.028-.982-.028Zm71.249 8.174c-4.309 0-7.085-2.163-7.085-5.506 0-2.219 1.215-5.899 9.369-5.899.26 0 .607 0 1.388.028v-1.573c0-.505 0-1.685-2.602-1.685a8.934 8.934 0 0 0-3.037.506 1.482 1.482 0 0 1-.347.056c-.289 0-.578-.113-.751-.337l-1.475-1.63a.983.983 0 0 1 .318-1.544c1.272-.618 3.21-.984 5.321-.984 2.747 0 7.373.703 7.373 5.478v11.489c0 .533-.463.983-1.012.983h-2.487c-.433 0-.838-.281-.983-.702-1.359.898-2.689 1.32-3.99 1.32Zm2.689-8.174c-3.325 0-4.829.758-4.829 2.415 0 1.405.867 2.08 2.631 2.08 1.388 0 2.371-.422 3.181-.844V17.99c-.463-.028-.752-.028-.983-.028Z" fill="#70A62D"/><path d="M21.585 7.09c-1.36 0-2.487-1.04-2.487-2.332 0-1.264 1.128-2.303 2.487-2.303 1.359 0 2.487 1.067 2.487 2.303 0 1.264-1.1 2.332-2.487 2.332Z" fill="#5C514E"/><path d="M125.827 7.118c-1.359 0-2.487-1.04-2.487-2.331 0-1.265 1.128-2.304 2.487-2.304 1.359 0 2.487 1.068 2.487 2.304 0 1.292-1.128 2.331-2.487 2.331Z" fill="#70A62D"/></svg>
