<svg width="24" height="22" fill="none" xmlns="http://www.w3.org/2000/svg"><g clip-path="url(#a)"><path d="M0 .39h23.635v2.555H0V.39Zm0 4.79h23.635v2.556H0V5.18Zm0 4.792h23.635v2.555H0V9.972Zm4.471 5.225h1.227v6.35H4.72v-4.868l.044.28-1.392 3.77h-.818L1.15 17.075l.044-.396v4.842H.217v-6.324h1.201l1.54 4.235 1.513-4.235ZM8.227 16.2v1.699h2.645v.996H8.227v1.655h3.124v.996H7.186v-6.35h4.165V16.2H8.227Zm4.3-1.003h1.136l2.734 4.886-.102.115v-5.001h1.01v6.35H16.16l-2.747-4.817.109-.115v4.931h-.997v-6.35Zm7.217 6.138a1.814 1.814 0 0 1-.773-.824 2.817 2.817 0 0 1-.268-1.277v-4.037h1.041v4.082c-.021.351.096.698.326.964a1.181 1.181 0 0 0 .9.339 1.208 1.208 0 0 0 .914-.339c.23-.266.348-.613.326-.964v-4.082h1.041v4.037c.016.44-.071.877-.255 1.277a1.86 1.86 0 0 1-.78.805 2.554 2.554 0 0 1-1.232.275 2.554 2.554 0 0 1-1.24-.256Z" fill="#575757"/></g><defs><clipPath id="a"><path fill="#fff" transform="translate(0 .39)" d="M0 0h23.635v21.22H0z"/></clipPath></defs></svg>
