<svg width="220" height="167" viewBox="0 0 220 167" fill="none" xmlns="http://www.w3.org/2000/svg">
<circle cx="110" cy="80" r="80" fill="#EAECF0"/>
<circle cx="26" cy="20" r="8" fill="#F2F4F7"/>
<circle cx="198" cy="126" r="6" fill="#F2F4F7"/>
<circle cx="25" cy="138" r="10" fill="#F2F4F7"/>
<circle cx="210" cy="38" r="10" fill="#F2F4F7"/>
<circle cx="191" cy="11" r="7" fill="#F2F4F7"/>
<g clip-path="url(#clip0_302_323)">
<path d="M179.459 32.2129H50.7478C49.0114 32.214 47.3463 32.9042 46.1184 34.1321C44.8906 35.36 44.2003 37.025 44.1992 38.7615V156.856C44.2003 158.592 44.8906 160.257 46.1184 161.485C47.3463 162.713 49.0114 163.403 50.7478 163.404H179.459C181.196 163.403 182.861 162.713 184.089 161.485C185.317 160.257 186.008 158.592 186.009 156.856V38.7615C186.008 37.0249 185.317 35.3598 184.089 34.1319C182.861 32.904 181.196 32.2138 179.459 32.2129Z" fill="#E0E2EE"/>
<path d="M170.986 122.367H59.2224C55.606 122.367 52.6738 119.435 52.6738 115.819V11.4763C52.6738 7.85987 55.606 4.92773 59.2224 4.92773H170.986C174.603 4.92773 177.535 7.85987 177.535 11.4763V115.819C177.535 119.435 174.603 122.367 170.986 122.367Z" fill="#E8EBF2"/>
<path d="M54.7471 117.891V13.5497C54.7471 9.93318 57.6793 7.00105 61.2958 7.00105H173.06C174.337 7.00105 175.524 7.3723 176.531 8.00458C175.374 6.15847 173.326 4.92773 170.986 4.92773H59.2224C55.606 4.92773 52.6738 7.85987 52.6738 11.4763V115.819C52.6738 118.159 53.9046 120.206 55.7507 121.364C55.1184 120.357 54.7471 119.169 54.7471 117.891Z" fill="url(#paint0_linear_302_323)"/>
<path d="M157.235 26.9736H72.9746V31.7755H157.235V26.9736ZM157.235 45.3089H72.9746V50.1108H157.235V45.3089ZM157.235 63.6483H72.9746V68.4502H157.235V63.6483ZM157.235 81.9835H72.9746V86.7861H157.235V81.9835Z" fill="#D8DBEA"/>
<path d="M83.0156 66.4844L104.189 87.6585H83.0156V66.4844Z" fill="url(#paint1_linear_302_323)"/>
<path d="M186.009 89.405V40.6874L177.535 32.2129V89.4043H186.009V89.405Z" fill="#E0E2EE"/>
<path d="M195.934 93.8117L186.805 158.44C186.348 161.671 183.583 164.073 180.32 164.073H49.8877C46.6249 164.073 43.8598 161.671 43.4033 158.44L31.0655 71.1113C30.509 67.1689 33.5683 63.6464 37.5499 63.6464H77.8302C81.093 63.6464 83.8581 66.0477 84.3145 69.2781L85.9314 80.7145C86.3879 83.9455 89.153 86.3468 92.4158 86.3468H189.451C193.432 86.3468 196.492 89.8693 195.935 93.8117H195.934Z" fill="#D8DBEA"/>
<path d="M163.587 135.246H66.6227C66.0912 135.245 65.578 135.051 65.1793 134.7C64.7806 134.349 64.5237 133.864 64.4567 133.337L63.2435 123.731C63.205 123.424 63.2322 123.112 63.3235 122.816C63.4147 122.52 63.5678 122.247 63.7726 122.015C63.9774 121.783 64.2293 121.597 64.5115 121.469C64.7937 121.342 65.0998 121.276 65.4095 121.275H164.8C165.109 121.276 165.415 121.342 165.698 121.469C165.98 121.597 166.232 121.783 166.437 122.015C166.641 122.247 166.795 122.52 166.886 122.816C166.977 123.112 167.004 123.424 166.966 123.731L165.752 133.337C165.686 133.864 165.429 134.349 165.03 134.7C164.631 135.051 164.118 135.245 163.587 135.246V135.246Z" fill="#BEC0D6"/>
</g>
<defs>
<linearGradient id="paint0_linear_302_323" x1="118.944" y1="67.4803" x2="36.1265" y2="-15.3382" gradientUnits="userSpaceOnUse">
<stop stop-color="white"/>
</linearGradient>
<linearGradient id="paint1_linear_302_323" x1="97.0048" y1="91.0558" x2="71.4115" y2="65.4633" gradientUnits="userSpaceOnUse">
<stop stop-color="#C2CECE" stop-opacity="0"/>
<stop offset="0.179" stop-color="#AFBCBC" stop-opacity="0.179"/>
<stop offset="1" stop-color="#5B6A6A"/>
</linearGradient>
<clipPath id="clip0_302_323">
<rect width="165" height="165" fill="white" transform="translate(31 2)"/>
</clipPath>
</defs>
</svg>
