<svg width="250" height="200" viewBox="0 0 250 200" fill="none" xmlns="http://www.w3.org/2000/svg">
<path fill-rule="evenodd" clip-rule="evenodd" d="M207 65C210.866 65 214 68.134 214 72C214 75.866 210.866 79 207 79H167C170.866 79 174 82.134 174 86C174 89.866 170.866 93 167 93H189C192.866 93 196 96.134 196 100C196 103.866 192.866 107 189 107H178.826C173.952 107 170 110.134 170 114C170 116.577 172 118.911 176 121C179.866 121 183 124.134 183 128C183 131.866 179.866 135 176 135H93C89.134 135 86 131.866 86 128C86 124.134 89.134 121 93 121H54C50.134 121 47 117.866 47 114C47 110.134 50.134 107 54 107H94C97.866 107 101 103.866 101 100C101 96.134 97.866 93 94 93H69C65.134 93 62 89.866 62 86C62 82.134 65.134 79 69 79H109C105.134 79 102 75.866 102 72C102 68.134 105.134 65 109 65H207ZM207 93C210.866 93 214 96.134 214 100C214 103.866 210.866 107 207 107C203.134 107 200 103.866 200 100C200 96.134 203.134 93 207 93Z" fill="#F3FFF4"/>
<path d="M95.5 141V67.4884C95.5 65.3507 97.6706 63.8802 99.6674 64.6434C105.765 66.9739 117.334 71.1104 126 72.5C136.435 74.1733 151.591 73.2954 158.206 72.7836C159.976 72.6466 161.5 74.0414 161.5 75.8171V141C161.5 142.657 160.157 144 158.5 144H98.5C96.8431 144 95.5 142.657 95.5 141Z" fill="#EDFEE8"/>
<path fill-rule="evenodd" clip-rule="evenodd" d="M126.504 41.8568C124.688 42.8172 122.914 44.9517 122.479 46.6991L122.183 47.8871H116.907C110.36 47.8871 110.203 47.9986 110.206 52.6733C110.207 56.3561 111.018 58.1438 113.326 59.5534C114.661 60.3686 115.524 60.4122 130.469 60.4122C145.414 60.4122 146.278 60.3686 147.612 59.5534C149.936 58.1343 150.731 56.3618 150.733 52.5981C150.735 48.0047 150.566 47.8871 143.956 47.8871H138.755L138.459 46.6991C138.013 44.9089 136.227 42.7986 134.342 41.8352C132.147 40.7133 128.647 40.7228 126.504 41.8568ZM127.836 44.6458C126.414 45.4204 125.295 47.1126 125.295 48.4889C125.295 50.5937 124.415 50.9112 118.581 50.9112H113.222V53.0906C113.222 54.829 113.436 55.4852 114.281 56.3307L115.339 57.3912H130.469H145.599L146.658 56.3307C147.502 55.4852 147.716 54.829 147.716 53.0906V50.9112H142.357C136.524 50.9112 135.643 50.5937 135.643 48.4889C135.643 45.1435 131.063 42.8884 127.836 44.6458ZM92.9569 51.236C92.0967 51.6663 91.1218 52.6413 90.6898 53.5032C89.9783 54.9223 89.9387 57.904 90.043 102.029L90.1543 149.042L91.7647 150.521L93.3756 152H130.288C164.308 152 167.299 151.942 168.447 151.263C171.132 149.674 171 152.269 170.999 101.39C170.998 58.1045 170.948 54.9146 170.244 53.5032C168.98 50.9669 167.393 50.4805 160.381 50.48C153.967 50.4792 153.061 50.7427 153.399 52.5104C153.531 53.2064 154.235 53.3097 160.153 53.5032C166.052 53.6959 166.825 53.8091 167.37 54.5577C167.888 55.2688 167.981 62.3701 167.981 101.226C167.981 142.006 167.907 147.162 167.31 148.016L166.639 148.976H130.454H94.2703L93.608 147.963C93.0207 147.065 92.9582 141.718 93.0591 100.896C93.1501 63.8713 93.282 54.7322 93.7313 54.2808C94.1198 53.8903 96.2886 53.6531 100.841 53.5032C106.706 53.3097 107.407 53.206 107.54 52.5104C107.877 50.7427 106.971 50.4792 100.558 50.48C95.622 50.4805 94.1797 50.6239 92.9569 51.236ZM101.904 72.9779C101.259 73.3542 101.149 74.0951 101.149 78.0626C101.149 81.0987 101.328 82.8859 101.667 83.225C102.376 83.9361 111.133 83.9361 111.842 83.225C112.552 82.514 112.552 73.7408 111.842 73.0298C111.199 72.3848 102.994 72.342 101.904 72.9779ZM104.167 78.1274V80.7194H106.754H109.342V78.1274V75.5354H106.754H104.167V78.1274ZM116.348 77.1174C115.389 77.5053 115.709 79.3828 116.779 79.6429C117.313 79.7729 126.654 79.8252 137.537 79.7591C155.454 79.6506 157.367 79.5716 157.777 78.9197C158.106 78.3974 158.074 78.0121 157.663 77.5157C157.16 76.9083 154.837 76.8353 136.992 76.8655C125.934 76.8841 116.645 76.9977 116.348 77.1174ZM101.667 88.5819C101.329 88.9197 101.149 90.6939 101.149 93.6795C101.149 96.6651 101.329 98.4393 101.667 98.7772C102.376 99.4882 111.133 99.4882 111.842 98.7772C112.552 98.0661 112.552 89.293 111.842 88.5819C111.505 88.2441 109.734 88.0635 106.754 88.0635C103.775 88.0635 102.004 88.2441 101.667 88.5819ZM104.167 93.6795V96.2715H106.754H109.342V93.6795V91.0875H106.754H104.167V93.6795ZM115.965 92.1675C115.829 92.5239 115.829 93.1071 115.965 93.4635C116.181 94.0269 118.907 94.1115 136.877 94.1115C154.847 94.1115 157.573 94.0269 157.789 93.4635C157.925 93.1071 157.925 92.5239 157.789 92.1675C157.573 91.6042 154.847 91.5195 136.877 91.5195C118.907 91.5195 116.181 91.6042 115.965 92.1675ZM101.416 104.286C101.023 105.311 101.104 113.243 101.514 113.89C101.774 114.302 103.182 114.413 107.005 114.322L112.144 114.2V109.016V103.832L106.913 103.711C102.429 103.607 101.645 103.689 101.416 104.286ZM104.167 109.016V111.824H106.754H109.342V109.016V106.208H106.754H104.167V109.016ZM116.348 107.358C115.389 107.746 115.709 109.623 116.779 109.883C117.313 110.013 126.654 110.065 137.537 109.999C155.454 109.891 157.367 109.812 157.777 109.16C158.106 108.638 158.074 108.252 157.663 107.756C157.16 107.149 154.837 107.076 136.992 107.106C125.934 107.124 116.645 107.238 116.348 107.358ZM101.904 119.202C101.259 119.579 101.149 120.319 101.149 124.287C101.149 127.323 101.328 129.11 101.667 129.449C102.376 130.16 111.133 130.16 111.842 129.449C112.552 128.738 112.552 119.965 111.842 119.254C111.199 118.609 102.994 118.566 101.904 119.202ZM104.167 124.352V126.944H106.754H109.342V124.352V121.76H106.754H104.167V124.352ZM115.965 123.704C115.829 124.06 115.829 124.643 115.965 125C116.181 125.563 118.882 125.648 136.655 125.648C158.174 125.648 158.522 125.617 157.81 123.759C157.567 123.123 155.563 123.056 136.877 123.056C118.907 123.056 116.181 123.14 115.965 123.704Z" fill="#639605"/>
<path d="M165 25C166.657 25 168 23.6569 168 22C168 20.3431 166.657 19 165 19C163.343 19 162 20.3431 162 22C162 23.6569 163.343 25 165 25Z" stroke="#BED4B2" stroke-width="2"/>
<path d="M196 41C197.657 41 199 39.6569 199 38C199 36.3431 197.657 35 196 35C194.343 35 193 36.3431 193 38C193 39.6569 194.343 41 196 41Z" fill="#CBEB9E"/>
<path d="M172.757 32.7573L181.116 41.1156M181.243 32.7573L172.884 41.1156L181.243 32.7573Z" stroke="#BED4B2" stroke-width="2.5" stroke-linecap="round" stroke-linejoin="round"/>
</svg>
