<svg width="18" height="18" fill="none" xmlns="http://www.w3.org/2000/svg"><path d="M3.094 2.25h3.094v-.563C6.188.757 6.944 0 7.875 0h2.25c.93 0 1.688.757 1.688 1.688v.562h3.093c.776 0 1.406.63 1.406 1.406v1.969c0 .31-.251.563-.562.563h-.307l-.486 10.205A1.685 1.685 0 0 1 13.27 18H4.73a1.685 1.685 0 0 1-1.686-1.607L2.557 6.187H2.25a.563.563 0 0 1-.563-.562V3.656c0-.775.631-1.406 1.407-1.406Zm7.594-.563a.563.563 0 0 0-.563-.562h-2.25a.563.563 0 0 0-.563.563v.562h3.375v-.563Zm4.5 1.97a.282.282 0 0 0-.282-.282H3.094a.282.282 0 0 0-.281.281v1.406h12.374V3.657ZM4.168 16.338c.013.3.26.536.56.536h8.543c.3 0 .548-.235.562-.536l.483-10.151H3.684l.483 10.151Z" fill="currentColor"/><path d="M9 15.75a.563.563 0 0 1-.563-.563V7.875a.563.563 0 0 1 1.126 0v7.313c0 .31-.252.562-.563.562ZM6.188 15.75a.563.563 0 0 1-.563-.563V7.875a.563.563 0 0 1 1.125 0v7.313c0 .31-.252.562-.563.562ZM11.813 15.75a.563.563 0 0 1-.563-.563V7.875a.563.563 0 0 1 1.125 0v7.313c0 .31-.252.562-.563.562Z" fill="currentColor"/></svg>
