<svg width="24" height="24" fill="none" xmlns="http://www.w3.org/2000/svg"><path d="M16.42 14.684a7.567 7.567 0 0 0 3.642-6.517C20.062 3.95 16.612.5 12.395.5 8.18.5 4.73 3.95 4.73 8.167a7.568 7.568 0 0 0 3.641 6.517C4.537 16.12 1.662 19.474.895 23.5h1.917c.959-4.409 4.888-7.667 9.583-7.667 4.696 0 8.625 3.258 9.584 7.667h1.916c-.766-4.12-3.641-7.475-7.475-8.816ZM6.645 8.166c0-3.163 2.588-5.75 5.75-5.75 3.163 0 5.75 2.587 5.75 5.75 0 3.162-2.587 5.75-5.75 5.75-3.162 0-5.75-2.588-5.75-5.75Z" fill="#575757"/></svg>
