<svg width="250" height="200" viewBox="0 0 250 200" fill="none" xmlns="http://www.w3.org/2000/svg">
<path fill-rule="evenodd" clip-rule="evenodd" d="M207 65C210.866 65 214 68.134 214 72C214 75.866 210.866 79 207 79H167C170.866 79 174 82.134 174 86C174 89.866 170.866 93 167 93H189C192.866 93 196 96.134 196 100C196 103.866 192.866 107 189 107H178.826C173.952 107 170 110.134 170 114C170 116.577 172 118.911 176 121C179.866 121 183 124.134 183 128C183 131.866 179.866 135 176 135H93C89.134 135 86 131.866 86 128C86 124.134 89.134 121 93 121H54C50.134 121 47 117.866 47 114C47 110.134 50.134 107 54 107H94C97.866 107 101 103.866 101 100C101 96.134 97.866 93 94 93H69C65.134 93 62 89.866 62 86C62 82.134 65.134 79 69 79H109C105.134 79 102 75.866 102 72C102 68.134 105.134 65 109 65H207ZM207 93C210.866 93 214 96.134 214 100C214 103.866 210.866 107 207 107C203.134 107 200 103.866 200 100C200 96.134 203.134 93 207 93Z" fill="#F3FFF4"/>
<path d="M91.9701 142.956L87.8491 99.5537C87.6664 97.6299 89.3151 96.0305 91.2336 96.2618C97.7582 97.0486 111.479 98.5379 121.528 98.4931C133.332 98.4404 150.39 96.2248 157.354 95.2479C159.061 95.0085 160.631 96.2383 160.793 97.9542L164.413 136.078C164.57 137.727 163.36 139.191 161.71 139.348L95.2402 145.659C93.5908 145.816 92.1267 144.605 91.9701 142.956Z" fill="#EDFEE8"/>
<path fill-rule="evenodd" clip-rule="evenodd" d="M119.617 49.4549C117.994 50.1605 116.663 52.1196 116.401 54.1897C116.188 55.8741 116.043 56.074 113.326 58.4554C100.195 69.9621 93.721 75.9709 93.72 76.6543C93.7179 77.7349 94.572 77.8963 95.6984 77.0279C96.2374 76.6126 101.065 72.3692 106.428 67.5978C111.79 62.8264 116.445 58.6957 116.773 58.4182C117.303 57.9695 117.489 58.0144 118.454 58.8254C119.783 59.9422 120.812 60.2215 122.782 59.9996C125.849 59.6546 127.693 57.2753 127.422 54.0127C127.336 52.9822 126.984 51.8216 126.6 51.302C125.055 49.217 122.014 48.4125 119.617 49.4549ZM119.806 52.4062C119.112 53.1001 118.789 53.7713 118.789 54.5198C118.789 55.9134 120.429 57.6499 121.744 57.6499C123.723 57.6499 125.028 56.3902 125.045 54.4638C125.054 53.4614 124.828 52.9989 123.985 52.2901C122.534 51.0704 121.104 51.1103 119.806 52.4062ZM128.179 58.1848C127.851 58.5795 127.812 58.9169 128.052 59.296C128.571 60.1182 156.769 77.1722 157.406 77.0494C157.734 76.9865 157.96 76.5928 157.96 76.0846C157.96 75.3324 156.61 74.4024 146.992 68.5323C126.888 56.2626 128.87 57.3525 128.179 58.1848ZM89.4229 79.7184C87.3278 81.6584 86.9535 82.7671 88.3279 82.965C89.355 83.1128 93.0908 79.6958 92.9536 78.7341C92.7631 77.4 91.5675 77.7335 89.4229 79.7184ZM156.742 80.103C154.156 80.3528 144.677 81.1986 135.676 81.9825C75.9565 87.1841 80.9002 86.6979 80.0691 87.4495C79.6892 87.7927 79.239 88.3339 79.0687 88.6514C78.8786 89.0065 79.0899 92.9603 79.6178 98.9152C80.8678 113.016 82.8581 135.782 83.4904 143.207C83.7916 146.746 84.2199 150.031 84.442 150.507C85.3216 152.394 85.5176 152.4 100.947 151.041C108.749 150.354 121.4 149.244 129.06 148.574C136.72 147.905 149.099 146.819 156.568 146.163L170.147 144.97L171.134 143.876C172.047 142.865 172.105 142.633 171.907 140.821C171.788 139.742 171.388 135.338 171.018 131.034C166.52 78.7334 166.799 81.3544 165.628 80.3482C164.563 79.4335 163.865 79.4144 156.742 80.103ZM160.92 82.2235C160.441 82.2917 150.1 83.2106 137.939 84.2651C125.779 85.3196 109.64 86.7278 102.075 87.3945C94.5107 88.0609 86.9897 88.7054 85.3619 88.8264C81.5043 89.1133 81.1276 89.3147 81.3671 90.9643C81.5301 92.0869 84.3745 124.468 85.9103 142.685C86.2007 146.128 86.5113 149.159 86.6008 149.42C86.7234 149.778 87.2098 149.841 88.5869 149.678C89.5901 149.559 95.7381 148.999 102.249 148.434C120.023 146.89 145.07 144.707 157.717 143.6C163.903 143.058 169.095 142.474 169.254 142.302C169.414 142.13 169.251 138.703 168.892 134.686C168.094 125.777 166.063 102.565 165.086 91.2119C164.691 86.621 164.302 82.6694 164.222 82.4301C164.083 82.0173 162.891 81.9429 160.92 82.2235ZM122 91.3416C112.698 93.7028 106.173 101.031 104.829 110.629C104.347 114.072 104.756 117.575 106.058 121.164C108.305 127.354 113.289 132.255 119.833 134.708C122.207 135.598 122.871 135.688 127.145 135.708C130.868 135.725 132.244 135.594 133.761 135.078C142.776 132.011 148.564 125.047 149.815 115.764C150.574 110.133 148.292 102.867 144.372 98.4286C142.676 96.5081 141.684 96.1586 141.087 97.2722C140.788 97.8297 141.018 98.2801 142.461 99.9676C149.516 108.215 149.077 119.947 141.431 127.556C135.148 133.808 126.233 135.238 118.143 131.289C114.821 129.668 110.928 125.745 109.25 122.33C103.524 110.666 109.844 97.0392 122.478 93.8116C125.3 93.0907 128.545 92.9411 130.668 93.4336C132.134 93.7744 133.064 93.3825 133.064 92.424C133.064 91.3524 131.729 90.9253 128.016 90.8085C125.474 90.7281 123.85 90.8725 122 91.3416ZM134.781 92.9801C134.113 93.7849 134.636 94.3699 137.329 95.8285C139.559 97.0364 139.709 97.0705 140.283 96.4976C141.105 95.6769 140.631 94.9844 138.273 93.5595C136.182 92.2953 135.451 92.1742 134.781 92.9801ZM122.793 98.1337C119.225 99.2636 115.432 102.208 113.666 105.218C110.581 110.476 110.815 117.1 114.268 122.265C115.467 124.059 117.961 126.483 118.225 126.113C118.273 126.046 121.229 119.733 124.793 112.085C129.325 102.362 131.151 98.1003 130.864 97.9177C130.2 97.4958 124.309 97.6537 122.793 98.1337ZM122.581 100.899C119.055 102.348 116.583 104.678 115.005 108.038C114.216 109.72 114.088 110.454 114.088 113.297C114.088 116.199 114.209 116.863 115.085 118.756C115.633 119.942 116.376 121.177 116.735 121.502C117.364 122.071 117.435 121.994 118.572 119.521C119.222 118.106 121.496 113.222 123.624 108.667C125.752 104.111 127.493 100.316 127.493 100.233C127.493 99.7711 124.258 100.211 122.581 100.899ZM129.52 114.438C123.802 126.732 123.086 128.465 123.6 128.755C124.652 129.349 129.94 129.156 132.02 128.448C141.336 125.276 145.698 115.209 141.55 106.451C140.638 104.525 137.136 100.419 136.422 100.44C136.203 100.446 133.097 106.745 129.52 114.438ZM132.035 114.959C129.292 120.835 126.973 125.917 126.882 126.252C126.674 127.014 127.269 127.026 130.274 126.319C133.204 125.629 134.999 124.551 137.172 122.177C140.189 118.88 141.328 114.448 140.245 110.225C139.695 108.081 138.346 105.372 137.465 104.642C137.121 104.356 135.908 106.661 132.035 114.959Z" fill="#639605"/>
</svg>
